<svg id="Livello_1" data-name="Livello 1" xmlns="http://www.w3.org/2000/svg" viewBox="0 0 307.43 118.4"><defs><style>.cls-1{fill:#36f487;}.cls-2{fill:#fff;}.cls-3{fill:#f44336;}</style></defs><title>logo_full_white</title><path class="cls-1" d="M128.33,293.67a37.6,37.6,0,0,1-16.2-14.82,43.25,43.25,0,0,1-5.64-22.32q0-17.64,6.66-31.32T131.21,204a45.09,45.09,0,0,1,25.32-7.5q13,0,19.68,6.66t6.72,17.58q0,7.32-2.58,11.76a8.81,8.81,0,0,1-12.66,2.88,5.53,5.53,0,0,1-1.92-4.56,29,29,0,0,1,.48-4,31,31,0,0,0,.72-5.76q0-10.92-11.64-10.92a25.56,25.56,0,0,0-15.12,5.16q-7.2,5.16-11.64,15.18t-4.44,23.82q0,14.4,8,22.26t23.76,7.86a65.35,65.35,0,0,0,15.78-2,122.67,122.67,0,0,0,17.7-6.06,8.44,8.44,0,0,1,3-.72,3.23,3.23,0,0,1,2.88,1.44,6.58,6.58,0,0,1,1,3.72q0,7.32-7.92,10.8a82.48,82.48,0,0,1-17.7,5.46,93.86,93.86,0,0,1-17.46,1.74Q138.89,298.89,128.33,293.67Z" transform="translate(-106.49 -180.49)"/><path class="cls-1" d="M190.31,293.37q-3.54-5.52-3.54-14.64a89.61,89.61,0,0,1,1.38-13.86,129.41,129.41,0,0,1,3.54-15.78q1.08-3.84,2.88-5.28t5.76-1.44q6.12,0,6.12,4.08,0,3-2.28,13.92-2.88,13.2-2.88,17.88a12.66,12.66,0,0,0,1,5.52,3.34,3.34,0,0,0,3.24,1.92q2.16,0,5.4-3a107.4,107.4,0,0,0,8.64-9.48,4.21,4.21,0,0,1,3.24-1.68,2.77,2.77,0,0,1,2.46,1.44,7.44,7.44,0,0,1,.9,4q0,4.8-2.28,7.44-11.88,14.52-22.2,14.52Q193.85,298.89,190.31,293.37Zm4.74-61.26a8.48,8.48,0,0,1-2.52-6.54,8.86,8.86,0,0,1,3.3-7,12.21,12.21,0,0,1,8.22-2.82,11.35,11.35,0,0,1,7.2,2.16A7.32,7.32,0,0,1,214,224a9.76,9.76,0,0,1-3.12,7.62,11.88,11.88,0,0,1-8.28,2.82Q197.57,234.45,195.05,232.11Z" transform="translate(-106.49 -180.49)"/><path class="cls-1" d="M282.65,263a8.3,8.3,0,0,1,.84,4,10.24,10.24,0,0,1-.84,4.62,4.43,4.43,0,0,1-2.64,2.22,54.63,54.63,0,0,1-15.84,2.88,31.1,31.1,0,0,1-9.06,16.08q-6.66,6.12-14.7,6.12-12.12,0-17.64-9.24t-5.52-26.76a163.63,163.63,0,0,1,3.84-33.66q3.84-18.18,11.22-31t17.58-12.78a10.39,10.39,0,0,1,8.88,4.74c2.23,3.16,3.36,7.26,3.36,12.3a54.57,54.57,0,0,1-3.72,19.56q-3.72,9.72-12.36,20.4a18.08,18.08,0,0,1,13.08,6.66,27.37,27.37,0,0,1,6,14.94,72.73,72.73,0,0,0,13.44-2.4,5.32,5.32,0,0,1,1.68-.24A2.62,2.62,0,0,1,282.65,263Zm-35.16,20q2.88-3.12,3.84-9a16.57,16.57,0,0,1-5.7-6.6,19.54,19.54,0,0,1-2-8.64,29.38,29.38,0,0,1,.48-4.56h-.36q-4.92,0-8.22,4.86t-3.3,13q0,6.84,2.58,10.44t6.06,3.6A8.77,8.77,0,0,0,247.49,283.05Zm-5.58-78.54a114.84,114.84,0,0,0-5.22,19.38,239.18,239.18,0,0,0-3.6,26.76Q241,236.13,245.75,225t4.74-19.74a15.09,15.09,0,0,0-.9-5.88q-.9-2-2.46-2Q244.73,197.37,241.91,204.51Z" transform="translate(-106.49 -180.49)"/><path class="cls-1" d="M276.58,293.91a21.51,21.51,0,0,1-3.41-12.42,103.6,103.6,0,0,1,1.2-16.5,101.31,101.31,0,0,1,4-15.9,10,10,0,0,1,3.36-5.16q2.16-1.56,6.84-1.56a6,6,0,0,1,3.66.84,3.11,3.11,0,0,1,1,2.52,51.81,51.81,0,0,1-1.32,6.48c-.81,3-1.44,5.64-1.93,8q-2.4,12.6-2.39,16.8a7.36,7.36,0,0,0,.6,3.54,2,2,0,0,0,1.91,1q1.82,0,4.5-3.6a52.38,52.38,0,0,0,5.77-10.92,145.93,145.93,0,0,0,5.94-18,9.38,9.38,0,0,1,2.94-5.16c1.31-1,3.3-1.56,5.94-1.56A7.88,7.88,0,0,1,319,243a2.63,2.63,0,0,1,1.08,2.46q0,3-3,16.44-3.36,15.36-3.35,19a5.67,5.67,0,0,0,1,3.54,3,3,0,0,0,2.52,1.26q2.39,0,5.7-2.94a98.83,98.83,0,0,0,8.82-9.54,4.21,4.21,0,0,1,3.23-1.68,2.76,2.76,0,0,1,2.46,1.44,7.35,7.35,0,0,1,.91,4c0,3.2-.77,5.68-2.29,7.44A53.07,53.07,0,0,1,325,294.81a23.28,23.28,0,0,1-13.5,4.08q-5.76,0-8.46-4.44T300.29,282q-2.06,8.16-6.12,12.54c-2.73,2.92-5.64,4.38-8.76,4.38Q280,298.89,276.58,293.91Z" transform="translate(-106.49 -180.49)"/><path class="cls-1" d="M330.7,294.09q-1.86-4.8-1.86-15.36a97.72,97.72,0,0,1,4.44-29.64,9,9,0,0,1,3.54-5.1,12.49,12.49,0,0,1,6.9-1.62,6.76,6.76,0,0,1,3.36.6,2.48,2.48,0,0,1,1,2.28q0,1.92-1.8,8.64-1.2,4.8-1.92,8.34a83.17,83.17,0,0,0-1.2,8.82,64.93,64.93,0,0,1,7.74-15.84,36.46,36.46,0,0,1,9.24-9.66,16.24,16.24,0,0,1,8.94-3.18q4.2,0,5.94,1.92t1.74,5.88q0,3.84-2.28,13.92-1,4.32-1.32,6.48a68.13,68.13,0,0,1,8.82-16.44q4.86-6.36,9.54-9.06a17.52,17.52,0,0,1,8.64-2.7,7,7,0,0,1,7.8,7.8,95,95,0,0,1-1.32,11.76q-1.2,7.32-1.92,13.86a134.1,134.1,0,0,0-.72,14.58q0,4.56-1.86,6.54t-6.06,2q-4,0-5.76-2t-1.8-6.12a120.41,120.41,0,0,1,1.68-15.84,113,113,0,0,0,1.44-12.24q0-1.92-1.32-1.92-1.56,0-4.44,4a59,59,0,0,0-5.76,10.62,86.2,86.2,0,0,0-4.68,13.92q-1.32,5.76-3.06,7.68t-5.58,1.92a6.36,6.36,0,0,1-5.94-3.78,19.58,19.58,0,0,1-2-9.18,103.86,103.86,0,0,1,1.2-13.2q1-7.68,1-10.08,0-1.92-1.32-1.92-1.8,0-4.56,4.32a62,62,0,0,0-5.34,11,106.23,106.23,0,0,0-4.14,13.2q-1.32,5.64-3.06,7.62t-5.46,2Q332.56,298.89,330.7,294.09Z" transform="translate(-106.49 -180.49)"/><path class="cls-2" d="M159.17,293.76c-9.46,0-17.8-1.75-24.79-5.2a37.75,37.75,0,0,1-16.14-14.77,43.34,43.34,0,0,1-5.63-22.26c0-11.69,2.24-22.21,6.65-31.27a51.94,51.94,0,0,1,18-21.13,45.18,45.18,0,0,1,25.25-7.48c8.56,0,15.16,2.23,19.59,6.63s6.68,10.28,6.68,17.49c0,4.83-.86,8.77-2.56,11.7a8.69,8.69,0,0,1-12.47,2.84,5.42,5.42,0,0,1-1.88-4.46,30.2,30.2,0,0,1,.48-3.94,31.06,31.06,0,0,0,.72-5.78c0-7.33-4-11-11.76-11a25.8,25.8,0,0,0-15.19,5.19c-4.8,3.44-8.73,8.56-11.69,15.23S130,240.19,130,249.37c0,9.59,2.72,17.11,8.08,22.35s13.38,7.89,23.85,7.89a65.65,65.65,0,0,0,15.81-2,123.4,123.4,0,0,0,17.72-6.07,8.34,8.34,0,0,1,2.95-.71,3.14,3.14,0,0,1,2.78,1.39,6.5,6.5,0,0,1,.93,3.65c0,4.8-2.64,8.4-7.84,10.69A83.11,83.11,0,0,1,176.61,292,94.55,94.55,0,0,1,159.17,293.76Z" transform="translate(-106.49 -180.49)"/><path class="cls-3" d="M162.53,191.78c8.53,0,15.09,2.22,19.5,6.59s6.65,10.22,6.65,17.4c0,4.81-.86,8.73-2.55,11.63a8.55,8.55,0,0,1-12.28,2.82,5.31,5.31,0,0,1-1.83-4.37,29.18,29.18,0,0,1,.47-3.91,30.73,30.73,0,0,0,.73-5.81c0-7.41-4-11.17-11.89-11.17a25.92,25.92,0,0,0-15.27,5.21c-4.81,3.45-8.76,8.59-11.72,15.28s-4.46,14.73-4.46,23.92c0,9.63,2.73,17.18,8.11,22.44s13.44,7.93,23.94,7.93a65.91,65.91,0,0,0,15.84-2,123.49,123.49,0,0,0,17.73-6.07,8.16,8.16,0,0,1,2.91-.7,3,3,0,0,1,2.67,1.33,6.36,6.36,0,0,1,.92,3.58c0,4.75-2.62,8.3-7.77,10.57a82.74,82.74,0,0,1-17.65,5.44,94.28,94.28,0,0,1-17.41,1.74c-9.44,0-17.76-1.75-24.73-5.2a37.53,37.53,0,0,1-16.1-14.72,43.26,43.26,0,0,1-5.6-22.19c0-11.67,2.23-22.17,6.63-31.21a51.72,51.72,0,0,1,18-21.08,45,45,0,0,1,25.18-7.46m0-.25a45.09,45.09,0,0,0-25.32,7.5q-11.4,7.5-18.06,21.18t-6.66,31.32a43.25,43.25,0,0,0,5.64,22.32,37.6,37.6,0,0,0,16.2,14.82q10.56,5.22,24.84,5.22a93.86,93.86,0,0,0,17.46-1.74,82.48,82.48,0,0,0,17.7-5.46q7.92-3.48,7.92-10.8a6.58,6.58,0,0,0-1-3.72,3.23,3.23,0,0,0-2.88-1.44,8.44,8.44,0,0,0-3,.72,122.67,122.67,0,0,1-17.7,6.06,65.35,65.35,0,0,1-15.78,2q-15.72,0-23.76-7.86t-8-22.26q0-13.8,4.44-23.82t11.64-15.18a25.56,25.56,0,0,1,15.12-5.16q11.64,0,11.64,10.92a31,31,0,0,1-.72,5.76,29,29,0,0,0-.48,4,5.53,5.53,0,0,0,1.92,4.56,8.81,8.81,0,0,0,12.66-2.88q2.58-4.44,2.58-11.76,0-10.92-6.72-17.58t-19.68-6.66Z" transform="translate(-106.49 -180.49)"/><path class="cls-2" d="M207.65,293.76c-5.13,0-8.91-1.83-11.24-5.46s-3.52-8.54-3.52-14.57a90.42,90.42,0,0,1,1.38-13.84,128.64,128.64,0,0,1,3.54-15.77c.71-2.52,1.66-4.27,2.84-5.21s3.08-1.42,5.68-1.42c4,0,6,1.3,6,4,0,2-.76,6.65-2.27,13.89-1.92,8.77-2.89,14.8-2.89,17.91a12.77,12.77,0,0,0,1,5.58,3.45,3.45,0,0,0,3.35,2c1.46,0,3.31-1,5.48-3a107.62,107.62,0,0,0,8.65-9.49,4.14,4.14,0,0,1,3.15-1.64,2.66,2.66,0,0,1,2.35,1.39,7.28,7.28,0,0,1,.88,3.89c0,3.15-.75,5.63-2.25,7.36C221.89,288.89,214.46,293.76,207.65,293.76Zm1-64.44c-3.31,0-5.83-.77-7.48-2.3a8.43,8.43,0,0,1-2.48-6.45,8.8,8.8,0,0,1,3.26-6.93,12.15,12.15,0,0,1,8.14-2.79,11.26,11.26,0,0,1,7.12,2.14,7.22,7.22,0,0,1,2.71,6,9.67,9.67,0,0,1-3.08,7.53A11.78,11.78,0,0,1,208.61,229.32Z" transform="translate(-106.49 -180.49)"/><path class="cls-3" d="M210.05,211a11.11,11.11,0,0,1,7,2.11,7.1,7.1,0,0,1,2.67,5.92,9.54,9.54,0,0,1-3,7.43,11.67,11.67,0,0,1-8.11,2.76c-3.28,0-5.77-.77-7.39-2.27a8.3,8.3,0,0,1-2.44-6.36,8.66,8.66,0,0,1,3.21-6.83,12,12,0,0,1,8.06-2.76m-3.72,26.64c3.95,0,5.87,1.25,5.87,3.83,0,2-.77,6.63-2.28,13.87C208,264.09,207,270.13,207,273.25a13,13,0,0,0,1,5.63,3.59,3.59,0,0,0,3.47,2.06c1.52,0,3.34-1,5.57-3.07a107.83,107.83,0,0,0,8.66-9.5,4,4,0,0,1,3.05-1.59A2.53,2.53,0,0,1,231,268.1a7.27,7.27,0,0,1,.86,3.83c0,3.12-.75,5.57-2.23,7.28-7.83,9.57-15.23,14.43-22,14.43-5.09,0-8.83-1.82-11.13-5.41s-3.5-8.5-3.5-14.5a90.1,90.1,0,0,1,1.37-13.82,130.17,130.17,0,0,1,3.54-15.75c.7-2.5,1.64-4.23,2.79-5.16s3-1.38,5.61-1.38m3.72-26.89a12.21,12.21,0,0,0-8.22,2.82,8.86,8.86,0,0,0-3.3,7,8.48,8.48,0,0,0,2.52,6.54q2.52,2.34,7.56,2.34a11.88,11.88,0,0,0,8.28-2.82A9.76,9.76,0,0,0,220,219a7.32,7.32,0,0,0-2.76-6.12,11.35,11.35,0,0,0-7.2-2.16Zm-3.72,26.64q-4,0-5.76,1.44t-2.88,5.28a129.41,129.41,0,0,0-3.54,15.78,89.61,89.61,0,0,0-1.38,13.86q0,9.12,3.54,14.64t11.34,5.52q10.32,0,22.2-14.52,2.28-2.64,2.28-7.44a7.44,7.44,0,0,0-.9-4,2.77,2.77,0,0,0-2.46-1.44,4.21,4.21,0,0,0-3.24,1.68,107.4,107.4,0,0,1-8.64,9.48q-3.24,3-5.4,3a3.34,3.34,0,0,1-3.24-1.92,12.66,12.66,0,0,1-1-5.52q0-4.68,2.88-17.88,2.28-10.92,2.28-13.92,0-4.08-6.12-4.08Z" transform="translate(-106.49 -180.49)"/><path class="cls-2" d="M246.41,293.76c-8,0-13.9-3.08-17.54-9.18s-5.5-15.09-5.5-26.69a164.06,164.06,0,0,1,3.84-33.64c2.54-12,6.31-22.45,11.21-30.92s10.75-12.72,17.47-12.72a10.34,10.34,0,0,1,8.78,4.69c2.21,3.13,3.33,7.24,3.33,12.23A54.55,54.55,0,0,1,264.29,217c-2.47,6.44-6.62,13.3-12.34,20.37l-.15.19H252a18.06,18.06,0,0,1,13,6.62,27.3,27.3,0,0,1,6,14.87l0,.12h.11a72.71,72.71,0,0,0,13.47-2.4,5.12,5.12,0,0,1,1.65-.24,2.5,2.5,0,0,1,2.29,1.5,8.32,8.32,0,0,1,.82,3.9,10.29,10.29,0,0,1-.82,4.56,4.35,4.35,0,0,1-2.57,2.16,54.49,54.49,0,0,1-15.81,2.87h-.09l0,.09a31.08,31.08,0,0,1-9,16A21.2,21.2,0,0,1,246.41,293.76Zm3.36-44.64c-3.31,0-6.11,1.66-8.33,4.92s-3.32,7.65-3.32,13.09c0,4.57.88,8.1,2.6,10.51s3.81,3.65,6.17,3.65a8.92,8.92,0,0,0,6.69-3.16c1.92-2.08,3.23-5.13,3.87-9.06V269l-.06,0a16.5,16.5,0,0,1-5.66-6.56,19.38,19.38,0,0,1-2-8.58,29.05,29.05,0,0,1,.48-4.54l0-.15Zm3.36-56.88c-1.68,0-3.42,2.37-5.34,7.22a116.42,116.42,0,0,0-5.23,19.41,246.58,246.58,0,0,0-3.6,26.77l-.05.59.29-.52c5.25-9.63,9.51-18.25,12.66-25.63s4.75-14,4.75-19.79a15.37,15.37,0,0,0-.91-5.93C255.08,193,254.21,192.24,253.13,192.24Z" transform="translate(-106.49 -180.49)"/><path class="cls-3" d="M255.89,180.74a10.2,10.2,0,0,1,8.67,4.63c2.2,3.11,3.32,7.2,3.32,12.16A54.38,54.38,0,0,1,264.17,217c-2.46,6.43-6.6,13.27-12.32,20.33l-.3.37.48,0a17.89,17.89,0,0,1,12.9,6.57,27.24,27.24,0,0,1,5.95,14.81l0,.23h.24a73.61,73.61,0,0,0,13.51-2.41,5.1,5.1,0,0,1,1.6-.23,2.38,2.38,0,0,1,2.18,1.43,8.19,8.19,0,0,1,.81,3.84,10,10,0,0,1-.82,4.5,4.13,4.13,0,0,1-2.5,2.1,54.48,54.48,0,0,1-15.76,2.87H270l-.05.18a31,31,0,0,1-9,16,21.14,21.14,0,0,1-14.53,6.05c-7.95,0-13.82-3.07-17.43-9.12s-5.48-15-5.48-26.63a164.36,164.36,0,0,1,3.83-33.61c2.54-12,6.31-22.42,11.19-30.89s10.69-12.65,17.37-12.65m-17.15,66.07.57-1c5.25-9.63,9.51-18.26,12.67-25.64s4.76-14.07,4.76-19.84a15.44,15.44,0,0,0-.92-6c-.65-1.45-1.55-2.19-2.69-2.19-1.73,0-3.52,2.39-5.46,7.3a116.57,116.57,0,0,0-5.23,19.42,244.85,244.85,0,0,0-3.6,26.79l-.1,1.18m8.15,34.61a9,9,0,0,0,6.78-3.2c1.94-2.11,3.26-5.18,3.9-9.13l0-.16-.13-.09a16.38,16.38,0,0,1-5.62-6.5,19.32,19.32,0,0,1-1.95-8.53,29.74,29.74,0,0,1,.47-4.52l0-.29h-.65c-3.36,0-6.19,1.67-8.43,5S238,261.66,238,267.13c0,4.59.88,8.15,2.62,10.58s3.87,3.71,6.27,3.71m9-100.93q-10.2,0-17.58,12.78t-11.22,31a163.63,163.63,0,0,0-3.84,33.66q0,17.52,5.52,26.76t17.64,9.24q8,0,14.7-6.12a31.1,31.1,0,0,0,9.06-16.08A54.63,54.63,0,0,0,286,268.81a4.43,4.43,0,0,0,2.64-2.22,10.24,10.24,0,0,0,.84-4.62,8.3,8.3,0,0,0-.84-4,2.62,2.62,0,0,0-2.4-1.56,5.32,5.32,0,0,0-1.68.24,72.73,72.73,0,0,1-13.44,2.4,27.37,27.37,0,0,0-6-14.94,18.08,18.08,0,0,0-13.08-6.66q8.64-10.68,12.36-20.4a54.57,54.57,0,0,0,3.72-19.56c0-5-1.13-9.14-3.36-12.3a10.39,10.39,0,0,0-8.88-4.74Zm-16.8,65.16a239.18,239.18,0,0,1,3.6-26.76,114.84,114.84,0,0,1,5.22-19.38q2.82-7.14,5.22-7.14,1.56,0,2.46,2a15.09,15.09,0,0,1,.9,5.88q0,8.64-4.74,19.74t-12.66,25.62Zm11,3.6a29.38,29.38,0,0,0-.48,4.56,19.54,19.54,0,0,0,2,8.64,16.57,16.57,0,0,0,5.7,6.6q-1,5.88-3.84,9a8.77,8.77,0,0,1-6.6,3.12q-3.48,0-6.06-3.6t-2.58-10.44q0-8.16,3.3-13t8.22-4.86Z" transform="translate(-106.49 -180.49)"/><path class="cls-2" d="M317.45,293.76c-3.78,0-6.59-1.47-8.36-4.38s-2.68-7.1-2.68-12.41v-1l-.25,1c-1.35,5.39-3.39,9.59-6.09,12.48s-5.6,4.34-8.66,4.34c-3.54,0-6.48-1.65-8.72-4.92a21.39,21.39,0,0,1-3.4-12.35,104.52,104.52,0,0,1,1.2-16.48,103.27,103.27,0,0,1,3.95-15.88,10,10,0,0,1,3.32-5.1c1.41-1,3.69-1.54,6.77-1.54a5.84,5.84,0,0,1,3.58.82,3,3,0,0,1,1,2.42,49.52,49.52,0,0,1-1.32,6.45c-.79,2.94-1.44,5.65-1.92,8-1.59,8.37-2.4,14-2.4,16.83a7.42,7.42,0,0,0,.62,3.6,2.17,2.17,0,0,0,2,1.08c1.26,0,2.76-1.19,4.6-3.65a52.84,52.84,0,0,0,5.78-10.94,147.93,147.93,0,0,0,6-18A9.37,9.37,0,0,1,315.3,239c1.29-1,3.27-1.54,5.87-1.54a7.8,7.8,0,0,1,3.77.65,2.52,2.52,0,0,1,1,2.35c0,2-1,7.5-3,16.41-2.23,10.2-3.36,16.59-3.36,19a5.86,5.86,0,0,0,1,3.62,3.16,3.16,0,0,0,2.62,1.3c1.62,0,3.57-1,5.78-3a96.44,96.44,0,0,0,8.83-9.55,4.13,4.13,0,0,1,3.14-1.64,2.67,2.67,0,0,1,2.36,1.39,7.37,7.37,0,0,1,.88,3.89c0,3.15-.76,5.63-2.25,7.36a53.38,53.38,0,0,1-11.07,10.42A23.28,23.28,0,0,1,317.45,293.76Z" transform="translate(-106.49 -180.49)"/><path class="cls-3" d="M321.17,237.62a7.76,7.76,0,0,1,3.7.62,2.4,2.4,0,0,1,1,2.25c0,2-1,7.48-3,16.39-2.23,10.2-3.36,16.6-3.36,19a6,6,0,0,0,1,3.69,3.27,3.27,0,0,0,2.72,1.36c1.65,0,3.63-1,5.86-3a98,98,0,0,0,8.85-9.57,4,4,0,0,1,3-1.59,2.51,2.51,0,0,1,2.25,1.32,7.17,7.17,0,0,1,.87,3.83c0,3.12-.75,5.57-2.23,7.28A53.12,53.12,0,0,1,330.8,289.6a23.09,23.09,0,0,1-13.35,4c-3.73,0-6.51-1.45-8.25-4.32s-2.66-7.06-2.66-12.35v-2l-.5,2c-1.34,5.37-3.38,9.55-6.06,12.43s-5.54,4.3-8.57,4.3c-3.5,0-6.4-1.64-8.62-4.87a21.3,21.3,0,0,1-3.37-12.28A105.52,105.52,0,0,1,280.61,260a104.22,104.22,0,0,1,3.95-15.86,9.88,9.88,0,0,1,3.27-5c1.39-1,3.64-1.51,6.7-1.51a5.76,5.76,0,0,1,3.5.78,2.88,2.88,0,0,1,.93,2.33,50.86,50.86,0,0,1-1.32,6.41c-.79,3-1.44,5.66-1.92,8.06-1.6,8.37-2.4,14-2.4,16.85a7.62,7.62,0,0,0,.63,3.67,2.3,2.3,0,0,0,2.13,1.14c1.3,0,2.84-1.21,4.7-3.7a53.38,53.38,0,0,0,5.8-11,148.35,148.35,0,0,0,5.95-18,9.22,9.22,0,0,1,2.85-5c1.27-1,3.22-1.51,5.79-1.51m0-.25c-2.64,0-4.63.52-5.94,1.56a9.38,9.38,0,0,0-2.94,5.16,145.93,145.93,0,0,1-5.94,18A52.38,52.38,0,0,1,300.58,273q-2.68,3.6-4.5,3.6a2,2,0,0,1-1.91-1,7.36,7.36,0,0,1-.6-3.54q0-4.2,2.39-16.8c.49-2.4,1.12-5.08,1.93-8a51.81,51.81,0,0,0,1.32-6.48,3.11,3.11,0,0,0-1-2.52,6,6,0,0,0-3.66-.84q-4.68,0-6.84,1.56a10,10,0,0,0-3.36,5.16,101.31,101.31,0,0,0-4,15.9,103.6,103.6,0,0,0-1.2,16.5,21.51,21.51,0,0,0,3.41,12.42q3.44,5,8.83,5c3.12,0,6-1.46,8.76-4.38s4.75-7.1,6.12-12.54q0,8,2.7,12.48t8.46,4.44a23.28,23.28,0,0,0,13.5-4.08A53.07,53.07,0,0,0,342,279.37c1.52-1.76,2.29-4.24,2.29-7.44a7.35,7.35,0,0,0-.91-4,2.76,2.76,0,0,0-2.46-1.44,4.21,4.21,0,0,0-3.23,1.68,98.83,98.83,0,0,1-8.82,9.54q-3.32,2.94-5.7,2.94a3,3,0,0,1-2.52-1.26,5.67,5.67,0,0,1-1-3.54q0-3.6,3.35-19,3-13.44,3-16.44A2.63,2.63,0,0,0,325,238a7.88,7.88,0,0,0-3.83-.66Z" transform="translate(-106.49 -180.49)"/><path class="cls-2" d="M402,293.76c-2.59,0-4.5-.67-5.66-2s-1.77-3.36-1.77-6a119.7,119.7,0,0,1,1.68-15.82,115.11,115.11,0,0,0,1.44-12.26c0-1.36-.49-2-1.45-2s-2.57,1.34-4.54,4.08A59.19,59.19,0,0,0,386,270.32a87.78,87.78,0,0,0-4.69,13.94c-.87,3.8-1.89,6.37-3,7.62s-3,1.88-5.49,1.88a6.28,6.28,0,0,1-5.83-3.71,19.6,19.6,0,0,1-2-9.12,103.31,103.31,0,0,1,1.2-13.18c.64-5.11,1-8.5,1-10.1,0-1.36-.49-2-1.45-2-1.25,0-2.78,1.44-4.66,4.38A61.88,61.88,0,0,0,355.67,271a107.11,107.11,0,0,0-4.15,13.22c-.87,3.72-1.89,6.27-3,7.57s-2.94,1.93-5.37,1.93c-3,0-5.09-1.58-6.3-4.72S335,280.72,335,273.73a98.08,98.08,0,0,1,4.43-29.6,9,9,0,0,1,3.49-5,12.43,12.43,0,0,1,6.83-1.6,6.65,6.65,0,0,1,3.3.59,2.36,2.36,0,0,1,.9,2.17c0,1.26-.61,4.16-1.8,8.61-.79,3.18-1.44,6-1.92,8.34A84.76,84.76,0,0,0,349,266l-.09,1,.33-1A65.23,65.23,0,0,1,357,250.28a36.37,36.37,0,0,1,9.2-9.63,16.26,16.26,0,0,1,8.87-3.16c2.75,0,4.72.64,5.85,1.88s1.71,3.21,1.71,5.8-.77,7.21-2.28,13.89c-.64,2.86-1.08,5.05-1.32,6.49l-.19,1.17.43-1.11A68.45,68.45,0,0,1,388,249.2c3.22-4.2,6.42-7.24,9.51-9a17.48,17.48,0,0,1,8.57-2.69,6.85,6.85,0,0,1,7.68,7.68,94.61,94.61,0,0,1-1.32,11.74c-.79,4.83-1.44,9.5-1.92,13.87a134.3,134.3,0,0,0-.72,14.59c0,3-.62,5.16-1.83,6.45S404.79,293.76,402,293.76Z" transform="translate(-106.49 -180.49)"/><path class="cls-3" d="M406.12,237.62a6.71,6.71,0,0,1,7.55,7.55,95.8,95.8,0,0,1-1.31,11.72c-.8,4.84-1.44,9.5-1.92,13.87a134.66,134.66,0,0,0-.73,14.61c0,3-.6,5.1-1.79,6.37s-3.16,1.9-5.88,1.9c-2.55,0-4.43-.66-5.57-2s-1.74-3.31-1.74-5.95a121.27,121.27,0,0,1,1.68-15.8,112.52,112.52,0,0,0,1.44-12.28c0-1.8-.85-2.17-1.57-2.17-1.13,0-2.65,1.35-4.64,4.12a59.52,59.52,0,0,0-5.79,10.67,87.68,87.68,0,0,0-4.69,14c-.87,3.79-1.88,6.33-3,7.57s-2.92,1.84-5.4,1.84a6.06,6.06,0,0,1-5.71-3.65,19.34,19.34,0,0,1-2-9.06,105.08,105.08,0,0,1,1.2-13.17c.64-5.11,1-8.51,1-10.11,0-1.8-.85-2.17-1.57-2.17-1.3,0-2.86,1.45-4.77,4.43A62.58,62.58,0,0,0,355.55,271a106.71,106.71,0,0,0-4.15,13.23c-.87,3.7-1.88,6.23-3,7.51s-2.88,1.9-5.28,1.9c-2.95,0-5-1.52-6.18-4.64s-1.85-8.29-1.85-15.27a97.89,97.89,0,0,1,4.43-29.57,8.83,8.83,0,0,1,3.44-5,12.29,12.29,0,0,1,6.76-1.58,6.63,6.63,0,0,1,3.23.56,2.27,2.27,0,0,1,.84,2.07c0,1.25-.6,4.13-1.79,8.58-.79,3.18-1.44,6-1.92,8.35a82.37,82.37,0,0,0-1.2,8.85l-.19,2,.67-1.94a65,65,0,0,1,7.71-15.78,36.39,36.39,0,0,1,9.17-9.59,16,16,0,0,1,8.8-3.14c2.72,0,4.65.62,5.76,1.84s1.67,3.15,1.67,5.71-.76,7.19-2.27,13.86c-.64,2.87-1.08,5.05-1.32,6.5l-.39,2.34.87-2.21a68.2,68.2,0,0,1,8.78-16.38c3.21-4.19,6.39-7.22,9.47-9a17.37,17.37,0,0,1,8.51-2.67m0-.25a17.52,17.52,0,0,0-8.64,2.7q-4.68,2.7-9.54,9.06a68.13,68.13,0,0,0-8.82,16.44q.36-2.16,1.32-6.48,2.28-10.08,2.28-13.92T381,239.29q-1.74-1.92-5.94-1.92a16.24,16.24,0,0,0-8.94,3.18,36.46,36.46,0,0,0-9.24,9.66,64.93,64.93,0,0,0-7.74,15.84,83.17,83.17,0,0,1,1.2-8.82q.72-3.54,1.92-8.34,1.8-6.72,1.8-8.64a2.48,2.48,0,0,0-1-2.28,6.76,6.76,0,0,0-3.36-.6,12.49,12.49,0,0,0-6.9,1.62,9,9,0,0,0-3.54,5.1,97.72,97.72,0,0,0-4.44,29.64q0,10.56,1.86,15.36t6.42,4.8q3.72,0,5.46-2t3.06-7.62a106.23,106.23,0,0,1,4.14-13.2,62,62,0,0,1,5.34-11q2.76-4.32,4.56-4.32,1.32,0,1.32,1.92,0,2.4-1,10.08a103.86,103.86,0,0,0-1.2,13.2,19.58,19.58,0,0,0,2,9.18,6.36,6.36,0,0,0,5.94,3.78q3.84,0,5.58-1.92t3.06-7.68a86.2,86.2,0,0,1,4.68-13.92,59,59,0,0,1,5.76-10.62q2.88-4,4.44-4,1.32,0,1.32,1.92a113,113,0,0,1-1.44,12.24,120.41,120.41,0,0,0-1.68,15.84q0,4.08,1.8,6.12t5.76,2q4.2,0,6.06-2t1.86-6.54a134.1,134.1,0,0,1,.72-14.58q.72-6.54,1.92-13.86a95,95,0,0,0,1.32-11.76,7,7,0,0,0-7.8-7.8Z" transform="translate(-106.49 -180.49)"/></svg>