<svg id="Livello_1" data-name="Livello 1" xmlns="http://www.w3.org/2000/svg" viewBox="0 0 248.07 107.36"><defs><style>.cls-1{fill:#36f487;}.cls-2{fill:#fff;}.cls-3{fill:#f33;}</style></defs><title>logo_white</title><path class="cls-1" d="M124.33,319.67a37.6,37.6,0,0,1-16.2-14.82,43.25,43.25,0,0,1-5.64-22.32q0-17.64,6.66-31.32T127.21,230a45.09,45.09,0,0,1,25.32-7.5q13,0,19.68,6.66t6.72,17.58q0,7.32-2.58,11.76a8.81,8.81,0,0,1-12.66,2.88,5.53,5.53,0,0,1-1.92-4.56,29,29,0,0,1,.48-4,31,31,0,0,0,.72-5.76q0-10.92-11.64-10.92a25.56,25.56,0,0,0-15.12,5.16q-7.2,5.16-11.64,15.18t-4.44,23.82q0,14.4,8,22.26t23.76,7.86a65.35,65.35,0,0,0,15.78-2,122.67,122.67,0,0,0,17.7-6.06,8.44,8.44,0,0,1,3-.72,3.23,3.23,0,0,1,2.88,1.44,6.58,6.58,0,0,1,1,3.72q0,7.32-7.92,10.8a82.48,82.48,0,0,1-17.7,5.46,93.86,93.86,0,0,1-17.46,1.74Q134.89,324.89,124.33,319.67Z" transform="translate(-102.49 -217.53)"/><path class="cls-2" d="M155.17,319.76c-9.46,0-17.8-1.75-24.79-5.2a37.75,37.75,0,0,1-16.14-14.77,43.34,43.34,0,0,1-5.63-22.26c0-11.69,2.24-22.21,6.65-31.27a51.94,51.94,0,0,1,18-21.13,45.18,45.18,0,0,1,25.25-7.48c8.56,0,15.16,2.23,19.59,6.63s6.68,10.28,6.68,17.49c0,4.83-.86,8.77-2.56,11.7a8.69,8.69,0,0,1-12.47,2.84,5.42,5.42,0,0,1-1.88-4.46,30.2,30.2,0,0,1,.48-3.94,31.06,31.06,0,0,0,.72-5.78c0-7.33-4-11-11.76-11a25.8,25.8,0,0,0-15.19,5.19c-4.8,3.44-8.73,8.56-11.69,15.23S126,266.19,126,275.37c0,9.59,2.72,17.11,8.08,22.35s13.38,7.89,23.85,7.89a65.65,65.65,0,0,0,15.81-2,123.4,123.4,0,0,0,17.72-6.07,8.34,8.34,0,0,1,2.95-.71,3.14,3.14,0,0,1,2.78,1.39,6.5,6.5,0,0,1,.93,3.65c0,4.8-2.64,8.4-7.84,10.69A83.11,83.11,0,0,1,172.61,318,94.55,94.55,0,0,1,155.17,319.76Z" transform="translate(-102.49 -217.53)"/><path class="cls-3" d="M158.53,217.78c8.53,0,15.09,2.22,19.5,6.59s6.65,10.22,6.65,17.4c0,4.81-.86,8.73-2.55,11.63a8.55,8.55,0,0,1-12.28,2.82,5.31,5.31,0,0,1-1.83-4.37,29.18,29.18,0,0,1,.47-3.91,30.73,30.73,0,0,0,.73-5.81c0-7.41-4-11.17-11.89-11.17a25.92,25.92,0,0,0-15.27,5.21c-4.81,3.45-8.76,8.59-11.72,15.28s-4.46,14.73-4.46,23.92c0,9.63,2.73,17.18,8.11,22.44s13.44,7.93,23.94,7.93a65.91,65.91,0,0,0,15.84-2,123.49,123.49,0,0,0,17.73-6.07,8.16,8.16,0,0,1,2.91-.7,3,3,0,0,1,2.67,1.33,6.36,6.36,0,0,1,.92,3.58c0,4.75-2.62,8.3-7.77,10.57a82.74,82.74,0,0,1-17.65,5.44,94.28,94.28,0,0,1-17.41,1.74c-9.44,0-17.76-1.75-24.73-5.2a37.53,37.53,0,0,1-16.1-14.72,43.26,43.26,0,0,1-5.6-22.19c0-11.67,2.23-22.17,6.63-31.21a51.72,51.72,0,0,1,18-21.08,45,45,0,0,1,25.18-7.46m0-.25a45.09,45.09,0,0,0-25.32,7.5q-11.4,7.5-18.06,21.18t-6.66,31.32a43.25,43.25,0,0,0,5.64,22.32,37.6,37.6,0,0,0,16.2,14.82q10.56,5.22,24.84,5.22a93.86,93.86,0,0,0,17.46-1.74,82.48,82.48,0,0,0,17.7-5.46q7.92-3.48,7.92-10.8a6.58,6.58,0,0,0-1-3.72,3.23,3.23,0,0,0-2.88-1.44,8.44,8.44,0,0,0-3,.72,122.67,122.67,0,0,1-17.7,6.06,65.35,65.35,0,0,1-15.78,2q-15.72,0-23.76-7.86t-8-22.26q0-13.8,4.44-23.82t11.64-15.18a25.56,25.56,0,0,1,15.12-5.16q11.64,0,11.64,10.92a31,31,0,0,1-.72,5.76,29,29,0,0,0-.48,4,5.53,5.53,0,0,0,1.92,4.56,8.81,8.81,0,0,0,12.66-2.88q2.58-4.44,2.58-11.76,0-10.92-6.72-17.58t-19.68-6.66Z" transform="translate(-102.49 -217.53)"/><text x="-102.49" y="-217.53"/><text x="-102.49" y="-217.53"/></svg>